<?xml version="1.0" encoding="UTF-8" standalone="no"?>
<svg
   xmlns:dc="http://purl.org/dc/elements/1.1/"
   xmlns:cc="http://creativecommons.org/ns#"
   xmlns:rdf="http://www.w3.org/1999/02/22-rdf-syntax-ns#"
   xmlns:svg="http://www.w3.org/2000/svg"
   xmlns="http://www.w3.org/2000/svg"
   xmlns:sodipodi="http://sodipodi.sourceforge.net/DTD/sodipodi-0.dtd"
   xmlns:inkscape="http://www.inkscape.org/namespaces/inkscape"
   viewBox="0 0 23.958115 9.4397899"
   id="svg4239"
   version="1.1"
   inkscape:version="0.91 r13725"
   sodipodi:docname="bottom-bracket.svg"
   width="23.958115"
   height="9.4397898">
  <metadata
     id="metadata4247">
    <rdf:RDF>
      <cc:Work
         rdf:about="">
        <dc:format>image/svg+xml</dc:format>
        <dc:type
           rdf:resource="http://purl.org/dc/dcmitype/StillImage" />
        <dc:title></dc:title>
      </cc:Work>
    </rdf:RDF>
  </metadata>
  <defs
     id="defs4245">
    <clipPath
       clipPathUnits="userSpaceOnUse"
       id="clipPath4885">
      <rect
         style="opacity:1;fill:#ffffff;fill-opacity:1;stroke:none;stroke-width:0.5;stroke-linecap:butt;stroke-linejoin:miter;stroke-miterlimit:4;stroke-dasharray:none;stroke-opacity:1"
         id="rect4887"
         width="9.5497389"
         height="23.958115"
         x="14.534032"
         y="0.041884817" />
    </clipPath>
  </defs>
  <sodipodi:namedview
     pagecolor="#ffffff"
     bordercolor="#666666"
     borderopacity="1"
     objecttolerance="10"
     gridtolerance="10"
     guidetolerance="10"
     inkscape:pageopacity="0"
     inkscape:pageshadow="2"
     inkscape:window-width="1280"
     inkscape:window-height="736"
     id="namedview4243"
     showgrid="false"
     inkscape:zoom="23.875"
     inkscape:cx="10.930656"
     inkscape:cy="11.994764"
     inkscape:window-x="0"
     inkscape:window-y="21"
     inkscape:window-maximized="1"
     inkscape:current-layer="svg4239"
     fit-margin-top="0"
     fit-margin-left="0"
     fit-margin-right="0"
     fit-margin-bottom="0" />
  <path
     d="M 6.6783013,0.02617801 A 2.6608494,2.6655032 0 0 0 4.017452,2.6916812 l 0,5.3310064 A 2.6608494,2.6655032 0 0 1 1.3566026,10.688191 l -1.33042459,0 0,2.665503 1.33042459,0 a 2.6608494,2.6655032 0 0 1 2.6608494,2.665503 l 0,5.331007 a 2.6608494,2.6655032 0 0 0 2.6608493,2.665503 l 2.660849,0 0,-2.665503 -2.660849,0 0,-6.663758 A 2.6608494,2.6655032 0 0 0 4.017452,12.020942 2.6608494,2.6655032 0 0 0 6.6783013,9.3554392 l 0,-6.663758 2.660849,0 0,-2.66550319 m 7.9825477,0 a 2.6608494,2.6655032 0 0 1 2.66085,2.66550319 l 0,5.3310064 a 2.6608494,2.6655032 0 0 0 2.660849,2.6655034 l 1.330425,0 0,2.665503 -1.330425,0 a 2.6608494,2.6655032 0 0 0 -2.660849,2.665503 l 0,5.331007 a 2.6608494,2.6655032 0 0 1 -2.66085,2.665503 l -2.660848,0 0,-2.665503 2.660848,0 0,-6.663758 a 2.6608494,2.6655032 0 0 1 2.66085,-2.665504 2.6608494,2.6655032 0 0 1 -2.66085,-2.6655028 l 0,-6.663758 -2.660848,0 0,-2.66550319 2.660848,0 z"
     id="path4241"
     inkscape:connector-curvature="0"
     style="fill:#263650"
     clip-path="url(#clipPath4885)"
     transform="matrix(0,1,-1,0,23.999999,-14.534032)" />
</svg>
