<?xml version="1.0" encoding="utf-8"?>
<!-- Generator: Adobe Illustrator 21.0.2, SVG Export Plug-In . SVG Version: 6.00 Build 0)  -->
<svg version="1.1"
	 id="svg2" inkscape:export-filename="/home/mark/mr-logo.png" inkscape:export-xdpi="90" inkscape:export-ydpi="90" inkscape:version="0.91 r13725" sodipodi:docname="mr-logo.svg" xmlns:cc="http://creativecommons.org/ns#" xmlns:dc="http://purl.org/dc/elements/1.1/" xmlns:inkscape="http://www.inkscape.org/namespaces/inkscape" xmlns:rdf="http://www.w3.org/1999/02/22-rdf-syntax-ns#" xmlns:sodipodi="http://sodipodi.sourceforge.net/DTD/sodipodi-0.dtd" xmlns:svg="http://www.w3.org/2000/svg"
	 xmlns="http://www.w3.org/2000/svg" xmlns:xlink="http://www.w3.org/1999/xlink" x="0px" y="0px" viewBox="0 0 224.7 144.3"
	 style="enable-background:new 0 0 224.7 144.3;" xml:space="preserve">
<style type="text/css">
	.st0{fill:#E74E4E;}
	.st1{font-family:'Arial-BoldMT';}
	.st2{font-size:201.2px;}
	.st3{clip-path:url(#SVGID_4_);fill:none;stroke:#E74E4E;stroke-width:4.7895;stroke-linecap:square;}
	.st4{clip-path:url(#SVGID_6_);fill:none;stroke:#E74E4E;stroke-width:4.9737;stroke-linecap:square;}
	.st5{clip-path:url(#SVGID_8_);fill:none;stroke:#E74E4E;stroke-width:4.9998;stroke-linecap:square;}
	.st6{fill:none;}
</style>
<sodipodi:namedview  bordercolor="#666666" borderopacity="1.0" fit-margin-bottom="0" fit-margin-left="0" fit-margin-right="0" fit-margin-top="0" id="base" inkscape:bbox-nodes="false" inkscape:current-layer="layer3" inkscape:cx="32.656662" inkscape:cy="22.874904" inkscape:document-units="px" inkscape:pageopacity="0.0" inkscape:pageshadow="2" inkscape:snap-bbox="false" inkscape:snap-bbox-edge-midpoints="false" inkscape:snap-bbox-midpoints="true" inkscape:snap-intersection-paths="false" inkscape:snap-nodes="false" inkscape:snap-object-midpoints="false" inkscape:snap-others="true" inkscape:snap-smooth-nodes="false" inkscape:snap-text-baseline="false" inkscape:window-height="736" inkscape:window-maximized="1" inkscape:window-width="1280" inkscape:window-x="0" inkscape:window-y="21" inkscape:zoom="7.6554662" pagecolor="#ffffff" showgrid="true" showguides="false">
	<inkscape:grid  id="grid4167" originx="-284.08215" originy="-709.68117" type="xygrid"></inkscape:grid>
</sodipodi:namedview>
<g id="layer1" transform="translate(-284.08216,-162.36217)" inkscape:groupmode="layer" inkscape:label="Layer 1">
	<g>
		<defs>
			<rect id="SVGID_1_" x="284.1" y="160.4" width="134" height="146.2"/>
		</defs>
		<clipPath id="SVGID_2_">
			<use xlink:href="#SVGID_1_"  style="overflow:visible;"/>
		</clipPath>
		<text transform="matrix(0.994 0 0 1 268.1278 306.1667)" class="st0 st1 st2">M</text>
	</g>
</g>
<g id="layer2" transform="translate(-284.08216,-162.36217)" inkscape:groupmode="layer" inkscape:label="Layer 2">
	<g>
		<defs>
			<rect id="SVGID_3_" x="440.4" y="162.6" width="57.4" height="81"/>
		</defs>
		<clipPath id="SVGID_4_">
			<use xlink:href="#SVGID_3_"  style="overflow:visible;"/>
		</clipPath>
		<path id="path4173" inkscape:connector-curvature="0" sodipodi:nodetypes="czzzzzcc" class="st3" d="M434.7,180.8
			c-0.3-0.4,12.5-0.2,18.1,0.1c5.6,0.3,10.2,0.9,15.9,3.5c5.7,2.7,10.3,9.3,10.3,17.7s-5.2,14.6-10.1,17.7c-4.9,3.1-10.5,4.2-16,4.5
			c-5.6,0.2-18.3,0.3-18.2-0.2L434.7,180.8z"/>
	</g>
	<g>
		<defs>
			<rect id="SVGID_5_" x="440.4" y="162.6" width="57.4" height="81"/>
		</defs>
		<clipPath id="SVGID_6_">
			<use xlink:href="#SVGID_5_"  style="overflow:visible;"/>
		</clipPath>
		<path id="path4175" inkscape:connector-curvature="0" sodipodi:nodetypes="czzzzzcc" class="st4" d="M434.8,164.8
			c-0.4-0.6,16.9-0.4,24.5,0.1c7.6,0.5,13.8,1.5,21.5,6.1c7.7,4.6,14,16.2,13.9,30.7c-0.1,14.5-7.1,25.2-13.7,30.7
			c-6.6,5.4-14.2,7.3-21.8,7.7c-7.5,0.4-24.9,0.6-24.6-0.3L434.8,164.8z"/>
	</g>
	<g>
		<defs>
			<rect id="SVGID_7_" x="440.4" y="162.6" width="57.4" height="81"/>
		</defs>
		<clipPath id="SVGID_8_">
			<use xlink:href="#SVGID_7_"  style="overflow:visible;"/>
		</clipPath>
		<path id="path4177" inkscape:connector-curvature="0" sodipodi:nodetypes="czzzzzcc" class="st5" d="M435,172.7
			c-0.3-0.5,14.7-0.3,21.3,0.1c6.6,0.4,12,1.2,18.7,4.8c6.7,3.6,12.2,12.8,12.1,24.3c-0.1,11.5-6.2,20-11.9,24.2
			c-5.8,4.3-12.4,5.8-18.9,6.1c-6.6,0.3-21.7,0.5-21.4-0.2L435,172.7z"/>
	</g>
	<path id="path4181" inkscape:connector-curvature="0" sodipodi:nodetypes="ccccccc" class="st6" d="M458.9,250
		c2.3,0.2,4.7,2.5,7,5.3L496,301c1.9,3.1,5,4.9,8.6,5.4l4.2-0.1l-40.2-59.6L458.9,250z"/>
</g>
<g id="layer3" transform="translate(-284.08216,-162.36217)" inkscape:groupmode="layer" inkscape:label="Layer 3">
	<rect id="rect4150" x="416.8" y="162.4" class="st0" width="4" height="144.3"/>
	<rect id="rect4154" x="432.8" y="162.4" class="st0" width="4" height="144.3"/>
	<rect id="rect4156" x="424.8" y="162.4" class="st0" width="4" height="144.3"/>
	<path id="path4201" inkscape:connector-curvature="0" sodipodi:nodetypes="ccccccccc" class="st0" d="M446.4,246.5l2.4,0
		c4.7-0.6,7.7,3.7,8.6,4.7l33.8,55.4h0.1c-4,0.3-4.9-0.8-6.7-3.6L453,251.3c-1-1.3-3.3-3.5-6.8-4.8L446.4,246.5z"/>
	<path id="path4210" inkscape:connector-curvature="0" sodipodi:nodetypes="ccccccccc" class="st0" d="M454.9,246.2l2.5,0.2
		c4.7-0.6,6.8,3.9,7.6,4.9l34.8,55.2l0.1,0.1l-4.2-0.1l-35.1-55.4c-1-1.3-2.1-3.5-5.7-4.8L454.9,246.2z"/>
	<path id="path4212" inkscape:connector-curvature="0" sodipodi:nodetypes="ccccccccc" class="st0" d="M464,246.5l3,0.1
		c4.7-0.6,6.5,4.8,7.4,5.7l33.6,54.5v0l-3.8-0.1l-33.9-54.4C469.3,251,467.4,247.8,464,246.5L464,246.5z"/>
</g>
</svg>
