<?xml version="1.0" encoding="UTF-8" standalone="no"?>
<!-- Created with Inkscape (http://www.inkscape.org/) -->

<svg
   xmlns:dc="http://purl.org/dc/elements/1.1/"
   xmlns:cc="http://creativecommons.org/ns#"
   xmlns:rdf="http://www.w3.org/1999/02/22-rdf-syntax-ns#"
   xmlns:svg="http://www.w3.org/2000/svg"
   xmlns="http://www.w3.org/2000/svg"
   xmlns:sodipodi="http://sodipodi.sourceforge.net/DTD/sodipodi-0.dtd"
   xmlns:inkscape="http://www.inkscape.org/namespaces/inkscape"
   width="79.277985mm"
   height="50.889996mm"
   viewBox="0 0 280.90624 180.31888"
   id="svg2"
   version="1.1"
   inkscape:version="0.91 r13725"
   sodipodi:docname="mr-logo-white.svg"
   inkscape:export-filename="/home/mark/mr-logo.png"
   inkscape:export-xdpi="90"
   inkscape:export-ydpi="90">
  <defs
     id="defs4">
    <clipPath
       clipPathUnits="userSpaceOnUse"
       id="clipPath4224">
      <rect
         style="opacity:1;fill:#e74e4e;fill-opacity:1;fill-rule:nonzero;stroke:none;stroke-width:5;stroke-linecap:square;stroke-linejoin:miter;stroke-miterlimit:4;stroke-dasharray:none;stroke-opacity:1"
         id="rect4226"
         width="167.50131"
         height="181.69633"
         x="246.04712"
         y="160.91457" />
    </clipPath>
    <clipPath
       clipPathUnits="userSpaceOnUse"
       id="clipPath4194">
      <rect
         style="opacity:1;fill:#ffffff;fill-opacity:1;fill-rule:nonzero;stroke:none;stroke-width:5;stroke-linecap:square;stroke-linejoin:miter;stroke-miterlimit:4;stroke-dasharray:none;stroke-opacity:1"
         id="rect4196"
         width="71.750145"
         height="101.24253"
         x="479.52426"
         y="162.64542" />
    </clipPath>
    <clipPath
       clipPathUnits="userSpaceOnUse"
       id="clipPath4198">
      <rect
         style="opacity:1;fill:#ffffff;fill-opacity:1;fill-rule:nonzero;stroke:none;stroke-width:5;stroke-linecap:square;stroke-linejoin:miter;stroke-miterlimit:4;stroke-dasharray:none;stroke-opacity:1"
         id="rect4200"
         width="71.750145"
         height="101.24253"
         x="479.52426"
         y="162.64542" />
    </clipPath>
    <clipPath
       clipPathUnits="userSpaceOnUse"
       id="clipPath4202">
      <rect
         style="opacity:1;fill:#ffffff;fill-opacity:1;fill-rule:nonzero;stroke:none;stroke-width:5;stroke-linecap:square;stroke-linejoin:miter;stroke-miterlimit:4;stroke-dasharray:none;stroke-opacity:1"
         id="rect4204"
         width="71.750145"
         height="101.24253"
         x="479.52426"
         y="162.64542" />
    </clipPath>
  </defs>
  <sodipodi:namedview
     id="base"
     pagecolor="#ffffff"
     bordercolor="#666666"
     borderopacity="1.0"
     inkscape:pageopacity="0.0"
     inkscape:pageshadow="2"
     inkscape:zoom="3.1777038"
     inkscape:cx="184.81294"
     inkscape:cy="90.159441"
     inkscape:document-units="px"
     inkscape:current-layer="layer3"
     showgrid="true"
     showguides="false"
     inkscape:snap-bbox="false"
     inkscape:snap-bbox-edge-midpoints="false"
     inkscape:snap-text-baseline="false"
     inkscape:bbox-nodes="false"
     inkscape:snap-bbox-midpoints="true"
     inkscape:snap-intersection-paths="false"
     inkscape:snap-smooth-nodes="false"
     inkscape:snap-nodes="false"
     inkscape:snap-object-midpoints="false"
     inkscape:snap-others="true"
     inkscape:window-width="1280"
     inkscape:window-height="736"
     inkscape:window-x="0"
     inkscape:window-y="21"
     inkscape:window-maximized="1"
     fit-margin-top="0"
     fit-margin-left="0"
     fit-margin-right="0"
     fit-margin-bottom="0">
    <inkscape:grid
       type="xygrid"
       id="grid4167"
       originx="-284.08215"
       originy="-709.68117" />
  </sodipodi:namedview>
  <metadata
     id="metadata7">
    <rdf:RDF>
      <cc:Work
         rdf:about="">
        <dc:format>image/svg+xml</dc:format>
        <dc:type
           rdf:resource="http://purl.org/dc/dcmitype/StillImage" />
        <dc:title></dc:title>
      </cc:Work>
    </rdf:RDF>
  </metadata>
  <g
     inkscape:label="Layer 1"
     inkscape:groupmode="layer"
     id="layer1"
     transform="translate(-284.08216,-162.36217)">
    <text
       xml:space="preserve"
       style="font-style:normal;font-variant:normal;font-weight:bold;font-stretch:normal;font-size:250px;line-height:125%;font-family:Lato;-inkscape-font-specification:'Lato, Bold';text-align:start;letter-spacing:0px;word-spacing:0px;writing-mode:lr-tb;text-anchor:start;fill:#ffffff;fill-opacity:1;stroke:none;stroke-width:1px;stroke-linecap:butt;stroke-linejoin:miter;stroke-opacity:1;"
       x="226.10376"
       y="342.05014"
       id="text4136"
       sodipodi:linespacing="125%"
       clip-path="url(#clipPath4224)"
       transform="matrix(1,0,0,0.99742739,37.853403,1.5108664)"><tspan
         sodipodi:role="line"
         id="tspan4140"
         x="226.10376"
         y="342.05014">M</tspan></text>
  </g>
  <g
     inkscape:groupmode="layer"
     id="layer2"
     inkscape:label="Layer 2"
     transform="translate(-284.08216,-162.36217)">
    <path
       style="fill:none;fill-rule:evenodd;stroke:#ffffff;stroke-width:4.78953218;stroke-linecap:square;stroke-linejoin:miter;stroke-miterlimit:4;stroke-dasharray:none;stroke-opacity:1"
       d="m 472.39975,185.37854 c -0.33758,-0.44594 15.61464,-0.26768 22.59372,0.10332 6.97911,0.37103 12.7489,1.07774 19.83414,4.40572 7.08524,3.32796 12.93509,11.65595 12.83242,22.12974 -0.10268,10.47382 -6.53191,18.20754 -12.62362,22.12656 -6.0917,3.91905 -13.09905,5.29004 -20.0464,5.57822 -6.94736,0.28817 -22.92784,0.43044 -22.69642,-0.19595 z"
       id="path4173"
       inkscape:connector-curvature="0"
       sodipodi:nodetypes="czzzzzcc"
       clip-path="url(#clipPath4202)" />
    <path
       sodipodi:nodetypes="czzzzzcc"
       inkscape:connector-curvature="0"
       id="path4175"
       d="m 472.46183,165.37653 c -0.45778,-0.77253 21.17732,-0.46367 30.64271,0.17906 9.46538,0.64276 17.29064,1.86703 26.89995,7.63219 9.6093,5.76522 17.54315,20.19209 17.40391,38.33636 -0.13923,18.14422 -8.8589,31.54163 -17.12073,38.33072 -8.26185,6.78915 -17.76549,9.16418 -27.18786,9.66341 -9.42232,0.49919 -31.09576,0.74569 -30.78191,-0.33947 z"
       style="fill:none;fill-rule:evenodd;stroke:#ffffff;stroke-width:4.97368574;stroke-linecap:square;stroke-linejoin:miter;stroke-miterlimit:4;stroke-dasharray:none;stroke-opacity:1;image-rendering:auto"
       clip-path="url(#clipPath4198)" />
    <path
       style="fill:none;fill-rule:evenodd;stroke:#ffffff;stroke-width:4.99977541;stroke-linecap:square;stroke-linejoin:miter;stroke-miterlimit:4;stroke-dasharray:none;stroke-opacity:1"
       d="m 472.77004,175.33794 c -0.39856,-0.61089 18.43483,-0.36672 26.67445,0.14156 8.2396,0.5083 15.05153,1.47637 23.41645,6.03525 8.36488,4.55892 15.27133,15.96716 15.15013,30.31492 -0.12124,14.34773 -7.71169,24.9419 -14.90364,30.31045 -7.19193,5.36859 -15.4649,7.24666 -23.66702,7.64145 -8.20217,0.39474 -27.06893,0.58964 -26.7957,-0.26846 z"
       id="path4177"
       inkscape:connector-curvature="0"
       sodipodi:nodetypes="czzzzzcc"
       clip-path="url(#clipPath4194)" />
    <path
       style="fill:none;fill-rule:evenodd;stroke:none;stroke-width:1px;stroke-linecap:butt;stroke-linejoin:miter;stroke-opacity:1"
       d="m 502.59512,271.93026 c 2.92632,0.27259 5.85263,3.13086 8.77895,6.62985 l 37.62409,57.0632 c 2.37815,3.81564 6.21946,6.17653 10.75025,6.76321 l 5.23999,-0.17899 -50.24963,-74.48538 z"
       id="path4181"
       inkscape:connector-curvature="0"
       sodipodi:nodetypes="ccccccc" />
  </g>
  <g
     inkscape:groupmode="layer"
     id="layer3"
     inkscape:label="Layer 3"
     transform="translate(-284.08216,-162.36217)">
    <rect
       style="opacity:1;fill:#ffffff;fill-opacity:1;fill-rule:nonzero;stroke:none;stroke-width:0.1;stroke-linecap:butt;stroke-linejoin:miter;stroke-miterlimit:4;stroke-dasharray:none;stroke-opacity:1"
       id="rect4150"
       width="5"
       height="180.39195"
       x="450"
       y="162.36217" />
    <rect
       style="opacity:1;fill:#ffffff;fill-opacity:1;fill-rule:nonzero;stroke:none;stroke-width:0.1;stroke-linecap:butt;stroke-linejoin:miter;stroke-miterlimit:4;stroke-dasharray:none;stroke-opacity:1"
       id="rect4154"
       width="5"
       height="180.39191"
       x="470"
       y="162.3622" />
    <rect
       y="162.3622"
       x="460"
       height="180.39191"
       width="5"
       id="rect4156"
       style="opacity:1;fill:#ffffff;fill-opacity:1;fill-rule:nonzero;stroke:none;stroke-width:0.1;stroke-linecap:butt;stroke-linejoin:miter;stroke-miterlimit:4;stroke-dasharray:none;stroke-opacity:1" />
    <path
       style="fill:#ffffff;fill-opacity:1;fill-rule:evenodd;stroke:none;stroke-width:1px;stroke-linecap:butt;stroke-linejoin:miter;stroke-opacity:1"
       d="m 486.98348,267.56949 2.97674,0.0164 c 5.93201,-0.72062 9.65049,4.61372 10.70189,5.83181 l 42.23134,69.22017 0.12404,0 c -5.04188,0.35765 -6.16867,-0.94285 -8.32235,-4.4673 l -39.45922,-64.66504 c -1.21145,-1.67493 -4.07366,-4.39834 -8.51446,-6.05085 z"
       id="path4201"
       inkscape:connector-curvature="0"
       sodipodi:nodetypes="ccccccccc" />
    <path
       sodipodi:nodetypes="ccccccccc"
       inkscape:connector-curvature="0"
       id="path4210"
       d="m 497.62536,267.20521 3.09488,0.27398 c 5.92419,-0.72015 8.44595,4.87904 9.49596,6.09632 l 43.53111,69.04297 0.14706,0.1323 -5.21216,-0.0959 -43.87175,-69.2514 c -1.20984,-1.67384 -2.66533,-4.40409 -7.10025,-6.0555 z"
       style="fill:#ffffff;fill-opacity:1;fill-rule:evenodd;stroke:none;stroke-width:1px;stroke-linecap:butt;stroke-linejoin:miter;stroke-opacity:1" />
    <path
       style="fill:#ffffff;fill-opacity:1;fill-rule:evenodd;stroke:none;stroke-width:1px;stroke-linecap:butt;stroke-linejoin:miter;stroke-opacity:1"
       d="m 508.91997,267.5017 3.81219,0.15052 c 5.8299,-0.70899 8.181,5.97682 9.2143,7.17525 l 41.94917,68.07864 0,0.003 -4.74558,-0.0944 -42.35729,-68.01502 c -1.19059,-1.64791 -3.5094,-5.65822 -7.87374,-7.28406 z"
       id="path4212"
       inkscape:connector-curvature="0"
       sodipodi:nodetypes="ccccccccc" />
  </g>
</svg>
